<?xml version="1.0" encoding="utf-8"?>
<svg id="master-artboard" viewBox="0 0 1293.05517578125 271.6346740722656" version="1.1" xmlns="http://www.w3.org/2000/svg" x="0px" y="0px" style="enable-background:new 0 0 1400 980;" width="1293.05517578125px" height="271.6346740722656px" xmlns:xlink="http://www.w3.org/1999/xlink"><g transform="matrix(1.5500025749206543, 0, 0, 1.5500025749206543, -63.24691123919547, -26.430908203125)"><rect id="ee-background" x="0" y="0" width="1293.05517578125" height="271.6346740722656" style="fill: white; fill-opacity: 0; pointer-events: none;"/><g transform="matrix(1.2760417461395264, 0, 0, 1.2760417461395264, -195.97152709960938, -385.23114013671875)"><metadata id="metadata182676">
    
  </metadata><linearGradient spreadMethod="pad" y2="30%" x2="-10%" y1="120%" x1="30%" id="3d_gradient2-logo-6c4f3352-56f3-41f1-91e2-86322ccc976b">
    <stop id="stop182651" stop-opacity="1" stop-color="#ffffff" offset="0%"/>
    <stop id="stop182653" stop-opacity="1" stop-color="#000000" offset="100%"/>
  </linearGradient><linearGradient gradientTransform="rotate(-30)" spreadMethod="pad" y2="30%" x2="-10%" y1="120%" x1="30%" id="3d_gradient3-logo-6c4f3352-56f3-41f1-91e2-86322ccc976b">
    <stop id="stop182656" stop-opacity="1" stop-color="#ffffff" offset="0%"/>
    <stop id="stop182658" stop-opacity="1" stop-color="#cccccc" offset="50%"/>
    <stop id="stop182660" stop-opacity="1" stop-color="#000000" offset="100%"/>
  </linearGradient><g id="logo-group">
    <image id="container" x="272" y="144" width="480" height="480" style="display: none;" transform="translate(0 0)" xlink:href=""/>
    <g id="logo-center" transform="translate(-1.1368683772161603e-13 0)">
      <image id="icon_container" style="display: none;" x="0" y="0" xlink:href=""/>
      <g id="slogan" style="font-style:normal;font-weight:700;font-size:32px;line-height:1;font-family:'Brandmark1 Bold';font-variant-ligatures:none;text-align:center;text-anchor:middle" transform="translate(0 0)">
        <path id="path182678" style="font-style:normal;font-weight:700;font-size:32px;line-height:1;font-family:'Brandmark1 Bold';font-variant-ligatures:none;text-align:center;text-anchor:middle" d="m 456.126,1.312 c 2.272,0 4.416,-0.672 5.984,-1.856 0.864,-0.672 1.536,-1.472 2.016,-2.4 0.48,-0.992 0.736,-2.08 0.736,-3.264 0,-2.176 -0.736,-3.872 -2.304,-5.12 -1.28,-1.088 -3.008,-1.76 -4.832,-2.464 -0.192,-0.096 -0.416,-0.16 -0.608,-0.256 -1.312,-0.48 -2.528,-0.96 -3.296,-1.472 -0.512,-0.384 -0.864,-0.8 -0.864,-1.536 0.032,-1.632 1.6,-2.208 2.944,-2.208 1.44,0 3.168,0.736 4.768,2.048 l 0.896,0.736 3.072,-4 -0.864,-0.672 c -2.368,-1.92 -5.088,-2.912 -7.872,-2.912 -2.144,0 -4.16,0.704 -5.664,2.016 -1.536,1.344 -2.4,3.136 -2.4,5.12 0,1.12 0.256,2.176 0.704,3.072 0.448,0.832 1.024,1.536 1.856,2.176 1.408,1.12 3.136,1.824 4.96,2.496 0.096,0.032 0.224,0.064 0.352,0.128 1.312,0.48 2.432,0.928 3.136,1.44 0.64,0.448 0.864,0.96 0.864,1.728 0,0.704 -0.256,1.248 -0.832,1.664 -0.608,0.448 -1.6,0.704 -2.72,0.704 -0.96,0 -1.952,-0.224 -2.88,-0.672 -0.96,-0.448 -1.856,-1.152 -2.528,-1.984 l -0.832,-1.056 -3.328,3.936 0.672,0.736 c 2.336,2.496 5.504,3.872 8.864,3.872 z" stroke-width="0" stroke-linejoin="miter" stroke-miterlimit="2" fill="#899a44" stroke="#899a44" transform="translate(1.1368683772161603e-13 375.15100000000007) translate(386.6974999999999 43.984) scale(1.25) translate(-446.59 24.064)"/>
        <path id="path182680" style="font-style:normal;font-weight:700;font-size:32px;line-height:1;font-family:'Brandmark1 Bold';font-variant-ligatures:none;text-align:center;text-anchor:middle" d="M 466.8165,-15.744 V 1.12 h 4.832 v -18.464 z" stroke-width="0" stroke-linejoin="miter" stroke-miterlimit="2" fill="#899a44" stroke="#899a44" transform="translate(1.1368683772161603e-13 375.15100000000007) translate(424.4806249999999 52.384) scale(1.25) translate(-466.8165 17.344)"/>
        <path id="path182682" style="font-style:normal;font-weight:700;font-size:32px;line-height:1;font-family:'Brandmark1 Bold';font-variant-ligatures:none;text-align:center;text-anchor:middle" d="m 473.605,1.312 h 7.488 c 3.232,0 5.856,-2.624 5.856,-5.856 0,-3.232 -2.624,-5.888 -5.856,-5.888 h -1.344 c -0.448,0 -0.832,-0.352 -0.832,-0.832 0,-0.448 0.384,-0.832 0.832,-0.832 h 6.688 v -5.024 h -6.688 c -3.232,0 -5.856,2.624 -5.856,5.856 0,3.232 2.624,5.856 5.856,5.856 h 1.344 c 0.448,0 0.832,0.384 0.832,0.864 0,0.448 -0.352,0.832 -0.832,0.832 h -7.488 z" stroke-width="0" stroke-linejoin="miter" stroke-miterlimit="2" fill="#899a44" stroke="#899a44" transform="translate(1.1368683772161603e-13 375.15100000000007) translate(445.46624999999995 52.664) scale(1.25) translate(-473.605 17.12)"/>
        <path id="path182684" style="font-style:normal;font-weight:700;font-size:32px;line-height:1;font-family:'Brandmark1 Bold';font-variant-ligatures:none;text-align:center;text-anchor:middle" d="m 493.589,-8.448 v -3.776 h 5.088 v -4.48 h -5.088 v -5.728 l -4.8,1.6 v 12.384 c 0,1.344 0.256,2.656 0.768,3.872 0.512,1.184 1.216,2.24 2.144,3.136 0.896,0.896 1.952,1.632 3.136,2.112 1.216,0.512 2.496,0.768 3.84,0.768 v -4.8 c -2.816,0 -5.088,-2.272 -5.088,-5.088 z" stroke-width="0" stroke-linejoin="miter" stroke-miterlimit="2" fill="#899a44" stroke="#899a44" transform="translate(1.1368683772161603e-13 375.15100000000007) translate(476.9462499999999 46.024) scale(1.25) translate(-488.789 22.432)"/>
        <path id="path182686" style="font-style:normal;font-weight:700;font-size:32px;line-height:1;font-family:'Brandmark1 Bold';font-variant-ligatures:none;text-align:center;text-anchor:middle" d="m 506.8335,1.216 c 1.28,0 2.496,-0.256 3.648,-0.736 1.088,-0.512 2.08,-1.184 2.912,-2.08 l -3.36,-3.2 c -0.832,0.896 -1.984,1.376 -3.2,1.376 -1.568,0 -2.912,-0.8 -3.712,-2.048 h 12.736 v -2.304 c 0,-2.432 -0.928,-4.672 -2.656,-6.4 -1.696,-1.696 -3.968,-2.624 -6.368,-2.624 -2.4,0 -4.672,0.928 -6.368,2.624 -1.696,1.728 -2.656,3.968 -2.656,6.4 0,2.4 0.96,4.672 2.656,6.368 1.696,1.696 3.968,2.624 6.368,2.624 z m 3.712,-11.328 h -7.424 c 0.8,-1.216 2.144,-2.048 3.712,-2.048 1.568,0 2.944,0.832 3.712,2.048 z" stroke-width="0" stroke-linejoin="miter" stroke-miterlimit="2" fill="#899a44" stroke="#899a44" transform="translate(1.1368683772161603e-13 375.15100000000007) translate(500.72187499999995 53.064) scale(1.25) translate(-497.8095 16.8)"/>
        <path id="path182688" style="font-style:normal;font-weight:700;font-size:32px;line-height:1;font-family:'Brandmark1 Bold';font-variant-ligatures:none;text-align:center;text-anchor:middle" d="m 540.713,-14.368 c -1.472,-1.472 -3.392,-2.272 -5.44,-2.272 -2.016,0 -3.872,0.768 -5.312,2.112 -1.44,-1.344 -3.296,-2.112 -5.28,-2.112 -1.024,0 -2.016,0.192 -2.912,0.576 v -0.832 h -4.8 V 1.12 h 4.8 V -8.928 c 0,-1.6 1.312,-2.912 2.912,-2.912 1.568,0 2.88,1.312 2.88,2.912 V 1.12 h 4.8 V -8.928 c 0,-1.6 1.312,-2.912 2.912,-2.912 1.568,0 2.88,1.312 2.88,2.912 V 1.12 h 4.8 V -8.928 c 0,-2.048 -0.8,-4 -2.24,-5.44 z" stroke-width="0" stroke-linejoin="miter" stroke-miterlimit="2" fill="#899a44" stroke="#899a44" transform="translate(1.1368683772161603e-13 375.15100000000007) translate(537.17125 52.944) scale(1.25) translate(-516.969 16.896)"/>
        <path id="path182690" style="font-style:normal;font-weight:700;font-size:32px;line-height:1;font-family:'Brandmark1 Bold';font-variant-ligatures:none;text-align:center;text-anchor:middle" d="m 562.2415,-16.896 h -4.8 v 0.992 c -1.248,-0.64 -2.656,-0.992 -4.096,-0.992 -1.248,0 -2.432,0.256 -3.552,0.736 -1.088,0.448 -2.08,1.12 -2.912,1.952 -0.832,0.832 -1.504,1.792 -1.952,2.88 -0.48,1.152 -0.704,2.336 -0.704,3.552 0,1.248 0.224,2.432 0.704,3.552 0.448,1.088 1.12,2.08 1.952,2.912 0.832,0.832 1.824,1.504 2.912,1.952 1.12,0.48 2.304,0.704 3.552,0.704 1.408,0 2.848,-0.32 4.096,-0.96 V 1.12 h 4.8 z m -6.72,12.864 c -0.672,0.384 -1.408,0.576 -2.176,0.576 -2.4,0 -4.32,-1.92 -4.32,-4.32 0,-2.368 1.92,-4.32 4.32,-4.32 0.832,0 1.632,0.256 2.336,0.704 0.672,0.448 1.216,1.056 1.568,1.792 0.256,0.576 0.384,1.184 0.384,1.856 0,0.736 -0.192,1.504 -0.576,2.144 -0.352,0.64 -0.896,1.184 -1.536,1.568 z" stroke-width="0" stroke-linejoin="miter" stroke-miterlimit="2" fill="#899a44" stroke="#899a44" transform="translate(1.1368683772161603e-13 375.15100000000007) translate(583.7418749999999 52.944) scale(1.25) translate(-544.2255 16.896)"/>
        <path id="path182692" style="font-style:normal;font-weight:700;font-size:32px;line-height:1;font-family:'Brandmark1 Bold';font-variant-ligatures:none;text-align:center;text-anchor:middle" d="m 563.73,1.312 h 7.488 c 3.232,0 5.856,-2.624 5.856,-5.856 0,-3.232 -2.624,-5.888 -5.856,-5.888 h -1.344 c -0.448,0 -0.832,-0.352 -0.832,-0.832 0,-0.448 0.384,-0.832 0.832,-0.832 h 6.688 v -5.024 h -6.688 c -3.232,0 -5.856,2.624 -5.856,5.856 0,3.232 2.624,5.856 5.856,5.856 h 1.344 c 0.448,0 0.832,0.384 0.832,0.864 0,0.448 -0.352,0.832 -0.832,0.832 h -7.488 z" stroke-width="0" stroke-linejoin="miter" stroke-miterlimit="2" fill="#899a44" stroke="#899a44" transform="translate(1.1368683772161603e-13 375.15100000000007) translate(620.6225 52.664) scale(1.25) translate(-563.73 17.12)"/>
      </g>
      <g id="title" style="font-style:normal;font-weight:normal;font-size:72px;line-height:1;font-family:'Brandmark Sans 21 Italic';font-variant-ligatures:normal;text-align:center;text-anchor:middle" transform="translate(0 0)">
        <path id="path182695" style="font-style:normal;font-weight:normal;font-size:72px;line-height:1;font-family:'Brandmark Sans 21 Italic';font-variant-ligatures:normal;text-align:center;text-anchor:middle" d="m 292.81962,-50.4 h -15.552 L 258.97962,0 h 15.48001 l 8.928,-24.552 3.024,12.888 h 15.55199 l 12.456,-12.888 -8.928,24.552 h 15.48001 l 18.36,-50.4 h -15.48 l -24.91201,25.848 z" stroke-width="0" stroke-linejoin="miter" stroke-miterlimit="2" fill="#899a44" stroke="#899a44" transform="translate(0 283.45500000000004) translate(186.95413750000006 52.879999999999995) scale(1.25) translate(-258.97962 50.4)"/>
        <path id="path182697" style="font-style:normal;font-weight:normal;font-size:72px;line-height:1;font-family:'Brandmark Sans 21 Italic';font-variant-ligatures:normal;text-align:center;text-anchor:middle" d="M 344.1005,-38.736 329.9885,0 h 15.48 l 12.672,-34.92 -6.336,-3.816 h 34.92 l -5.616,15.48 h -19.44 c -2.016,5.616 2.16,11.592 8.136,11.592 h 7.056 L 372.6125,0 h 15.48 l 14.112,-38.736 c 2.376,-6.48 -0.936,-11.664 -7.344,-11.664 h -34.92 c -6.408,0 -13.464,5.184 -15.84,11.664 z" stroke-width="0" stroke-linejoin="miter" stroke-miterlimit="2" fill="#829444" stroke="#829444" transform="translate(0 283.45500000000004) translate(278.21523750000006 52.879999999999995) scale(1.25) translate(-329.9885 50.4)"/>
        <path id="path182699" style="font-style:normal;font-weight:normal;font-size:72px;line-height:1;font-family:'Brandmark Sans 21 Italic';font-variant-ligatures:normal;text-align:center;text-anchor:middle" d="m 407.87675,0 h 34.92 c 6.408,0 13.536,-5.184 15.84,-11.664 l 7.056,-19.368 h -27.144 l -4.248,11.664 h 11.664 l -2.808,7.704 h -27.144 l 8.424,-23.256 -6.336,-3.816 h 50.4 l 4.248,-11.664 h -46.512 c -6.408,0 -13.536,5.184 -15.84,11.664 l -9.864,27.072 c -2.376,6.48 0.936,11.664 7.344,11.664 z" stroke-width="0" stroke-linejoin="miter" stroke-miterlimit="2" fill="#7b8d44" stroke="#7b8d44" transform="translate(0 283.45500000000004) translate(367.9332250000001 52.879999999999995) scale(1.25) translate(-399.76289 50.4)"/>
        <path id="path182701" style="font-style:normal;font-weight:normal;font-size:72px;line-height:1;font-family:'Brandmark Sans 21 Italic';font-variant-ligatures:normal;text-align:center;text-anchor:middle" d="M 476.99112,-38.736 462.87912,0 h 15.48 l 12.672,-34.92 -6.33599,-3.816 h 34.92 l -5.616,15.48 h -19.44001 c -2.01599,5.616 2.16001,11.592 8.13601,11.592 h 7.05599 L 505.50312,0 h 15.48 l 14.11201,-38.736 c 2.376,-6.48 -0.936,-11.664 -7.34401,-11.664 h -34.92 c -6.40799,0 -13.464,5.184 -15.84,11.664 z" stroke-width="0" stroke-linejoin="miter" stroke-miterlimit="2" fill="#748744" stroke="#748744" transform="translate(0 283.45500000000004) translate(449.3285125000001 52.879999999999995) scale(1.25) translate(-462.87912 50.4)"/>
        <path id="path182703" style="font-style:normal;font-weight:normal;font-size:72px;line-height:1;font-family:'Brandmark Sans 21 Italic';font-variant-ligatures:normal;text-align:center;text-anchor:middle" d="m 540.76738,0 h 34.91999 c 6.408,0 13.53601,-5.184 15.84,-11.664 l 7.05601,-19.368 h -27.144 l -4.24801,11.664 h 11.664 l -2.808,7.704 h -27.144 l 8.424,-23.256 -6.336,-3.816 h 50.40001 l 4.24799,-11.664 h -46.51199 c -6.408,0 -13.53601,5.184 -15.84001,11.664 l -9.864,27.072 c -2.376,6.48 0.936,11.664 7.34401,11.664 z" stroke-width="0" stroke-linejoin="miter" stroke-miterlimit="2" fill="#6e8145" stroke="#6e8145" transform="translate(0 283.45500000000004) translate(539.0465 52.879999999999995) scale(1.25) translate(-532.65351 50.4)"/>
        <path id="path182705" style="font-style:normal;font-weight:normal;font-size:72px;line-height:1;font-family:'Brandmark Sans 21 Italic';font-variant-ligatures:normal;text-align:center;text-anchor:middle" d="m 629.89775,-50.4 h -15.48 l -18.36,50.4 h 15.48 l 11.736,-32.04 15.408,32.04 h 15.552 l 23.976,-65.88 h -15.48 l -17.352,47.52 z" stroke-width="0" stroke-linejoin="miter" stroke-miterlimit="2" fill="#677b45" stroke="#677b45" transform="translate(0 283.45500000000004) translate(620.8018000000002 33.53) scale(1.25) translate(-596.05775 65.88)"/>
        <path id="path182707" style="font-style:normal;font-weight:normal;font-size:72px;line-height:1;font-family:'Brandmark Sans 21 Italic';font-variant-ligatures:normal;text-align:center;text-anchor:middle" d="M 697.679,-50.4 H 682.127 L 663.839,0 h 15.48 z" stroke-width="0" stroke-linejoin="miter" stroke-miterlimit="2" fill="#607445" stroke="#607445" transform="translate(0 283.45500000000004) translate(708.0283625000002 52.879999999999995) scale(1.25) translate(-663.839 50.4)"/>
        <path id="path182709" style="font-style:normal;font-weight:normal;font-size:72px;line-height:1;font-family:'Brandmark Sans 21 Italic';font-variant-ligatures:normal;text-align:center;text-anchor:middle" d="M 722.429,-50.4 H 706.877 L 688.589,0 h 15.48 L 715.733,-32.04 731.213,0 h 15.48 l 18.36,-50.4 h -15.48 l -11.664,32.04 z" stroke-width="0" stroke-linejoin="miter" stroke-miterlimit="2" fill="#596e45" stroke="#596e45" transform="translate(0 283.45500000000004) translate(741.4658625000001 52.879999999999995) scale(1.25) translate(-688.589 50.4)"/>
      </g>
      <image id="icon" style="display: none;" x="0" y="0" xlink:href=""/>
    </g>
  </g></g></g></svg>